<svg xmlns="http://www.w3.org/2000/svg" xmlns:xlink="http://www.w3.org/1999/xlink" width="500" zoomAndPan="magnify" viewBox="0 0 375 374.999991" height="500" preserveAspectRatio="xMidYMid meet" version="1.2"><defs><clipPath id="041416e69d"><path d="M 27.625 33.164062 L 331.957031 33.164062 L 331.957031 337.5 L 27.625 337.5 Z M 27.625 33.164062 "/></clipPath><clipPath id="c612d029d1"><path d="M 179.789062 33.164062 C 95.75 33.164062 27.625 101.292969 27.625 185.332031 C 27.625 269.371094 95.75 337.5 179.789062 337.5 C 263.828125 337.5 331.957031 269.371094 331.957031 185.332031 C 331.957031 101.292969 263.828125 33.164062 179.789062 33.164062 Z M 179.789062 33.164062 "/></clipPath><clipPath id="1bc319e9b3"><path d="M 69.976562 120 L 110 120 L 110 223 L 69.976562 223 Z M 69.976562 120 "/></clipPath><clipPath id="98bfbbd6f0"><path d="M 99 112.5 L 150 112.5 L 150 262.5 L 99 262.5 Z M 99 112.5 "/></clipPath><clipPath id="3e54d1b979"><path d="M 109 112.5 L 125 112.5 L 125 121 L 109 121 Z M 109 112.5 "/></clipPath><clipPath id="93182f7c23"><path d="M 149 126 L 179.476562 126 L 179.476562 223 L 149 223 Z M 149 126 "/></clipPath><clipPath id="a9e3034f2b"><path d="M 69.976562 192 L 85 192 L 85 250 L 69.976562 250 Z M 69.976562 192 "/></clipPath><clipPath id="a753007260"><path d="M 169 199 L 179.476562 199 L 179.476562 248 L 169 248 Z M 169 199 "/></clipPath></defs><g id="0e24e87644"><g clip-rule="nonzero" clip-path="url(#041416e69d)"><g clip-rule="nonzero" clip-path="url(#c612d029d1)"><path style=" stroke:none;fill-rule:nonzero;fill:#bfe0f8;fill-opacity:1;" d="M 27.625 33.164062 L 331.957031 33.164062 L 331.957031 337.5 L 27.625 337.5 Z M 27.625 33.164062 "/></g></g><g clip-rule="nonzero" clip-path="url(#1bc319e9b3)"><path style=" stroke:none;fill-rule:nonzero;fill:#c1277f;fill-opacity:1;" d="M 99.640625 126.292969 L 69.984375 142.597656 L 69.984375 222.484375 L 109.304688 222.484375 L 109.304688 120.976562 Z M 99.640625 126.292969 "/></g><g clip-rule="nonzero" clip-path="url(#98bfbbd6f0)"><path style=" stroke:none;fill-rule:nonzero;fill:#f57f25;fill-opacity:1;" d="M 124.714844 112.5 L 109.304688 120.976562 L 99.640625 126.292969 L 99.640625 253.546875 C 99.640625 258.492188 103.640625 262.5 108.570312 262.5 C 113.5 262.5 117.5 258.488281 117.5 253.546875 L 117.5 228.421875 C 117.5 233.371094 121.5 237.378906 126.429688 237.378906 C 131.359375 237.378906 135.359375 233.367188 135.359375 228.421875 L 135.359375 209.761719 C 135.359375 205.804688 138.558594 202.597656 142.5 202.597656 C 146.441406 202.597656 149.636719 205.800781 149.644531 209.75 L 149.777344 126.28125 Z M 124.714844 112.5 "/></g><path style=" stroke:none;fill-rule:nonzero;fill:#f57f25;fill-opacity:1;" d="M 126.425781 241.8125 C 126.425781 241.816406 126.421875 241.824219 126.421875 241.832031 C 125.746094 244.445312 122.3125 245.863281 122.3125 249.238281 C 122.3125 251.515625 124.152344 253.367188 126.421875 253.375 L 126.445312 253.375 C 128.714844 253.367188 130.554688 251.515625 130.554688 249.238281 C 130.554688 245.863281 127.117188 244.453125 126.445312 241.832031 C 126.4375 241.828125 126.4375 241.816406 126.425781 241.8125 Z M 126.425781 241.8125 "/><g clip-rule="nonzero" clip-path="url(#3e54d1b979)"><path style=" stroke:none;fill-rule:nonzero;fill:#3fa9f5;fill-opacity:1;" d="M 109.304688 120.976562 L 124.714844 112.5 Z M 109.304688 120.976562 "/></g><g clip-rule="nonzero" clip-path="url(#93182f7c23)"><path style=" stroke:none;fill-rule:nonzero;fill:#3fa9f5;fill-opacity:1;" d="M 149.78125 126.28125 L 149.78125 222.484375 L 179.445312 222.484375 L 179.445312 142.597656 Z M 149.78125 126.28125 "/></g><g clip-rule="nonzero" clip-path="url(#a9e3034f2b)"><path style=" stroke:none;fill-rule:nonzero;fill:#c1277f;fill-opacity:1;" d="M 77 249.804688 C 73.125 249.804688 69.980469 246.652344 69.980469 242.765625 L 69.980469 192.925781 L 84.015625 192.925781 L 84.015625 242.765625 C 84.015625 246.652344 80.871094 249.804688 77 249.804688 Z M 77 249.804688 "/></g><path style=" stroke:none;fill-rule:nonzero;fill:#c1277f;fill-opacity:1;" d="M 95.761719 234.667969 C 93.621094 234.667969 91.886719 232.929688 91.886719 230.78125 L 91.886719 171.800781 L 99.644531 171.800781 L 99.644531 230.78125 C 99.640625 232.929688 97.902344 234.667969 95.761719 234.667969 Z M 95.761719 234.667969 "/><path style=" stroke:none;fill-rule:nonzero;fill:#3fa9f5;fill-opacity:1;" d="M 156.089844 235.441406 C 152.53125 235.441406 149.644531 232.546875 149.644531 228.976562 L 149.644531 163.449219 L 162.535156 163.449219 L 162.535156 228.976562 C 162.535156 232.546875 159.648438 235.441406 156.089844 235.441406 Z M 156.089844 235.441406 "/><path style=" stroke:none;fill-rule:nonzero;fill:#ffffff;fill-opacity:1;" d="M 107.9375 159.730469 L 122.675781 159.730469 L 122.675781 174.511719 L 107.9375 174.511719 Z M 107.9375 159.730469 "/><path style=" stroke:none;fill-rule:nonzero;fill:#ffffff;fill-opacity:1;" d="M 126.746094 159.730469 L 141.484375 159.730469 L 141.484375 174.511719 L 126.746094 174.511719 Z M 126.746094 159.730469 "/><path style=" stroke:none;fill-rule:nonzero;fill:#ffffff;fill-opacity:1;" d="M 107.9375 178.144531 L 122.675781 178.144531 L 122.675781 192.925781 L 107.9375 192.925781 Z M 107.9375 178.144531 "/><path style=" stroke:none;fill-rule:nonzero;fill:#ffffff;fill-opacity:1;" d="M 126.746094 178.144531 L 141.484375 178.144531 L 141.484375 192.925781 L 126.746094 192.925781 Z M 126.746094 178.144531 "/><path style=" stroke:none;fill-rule:nonzero;fill:#ffffff;fill-opacity:1;" d="M 87.949219 219.070312 C 85.777344 219.070312 84.015625 220.839844 84.015625 223.015625 L 84.015625 232.171875 L 91.882812 232.171875 L 91.882812 223.015625 C 91.882812 220.839844 90.125 219.070312 87.949219 219.070312 Z M 87.949219 219.070312 "/><g clip-rule="nonzero" clip-path="url(#a753007260)"><path style=" stroke:none;fill-rule:nonzero;fill:#3fa9f5;fill-opacity:1;" d="M 174.625 247.816406 C 171.964844 247.816406 169.808594 245.652344 169.808594 242.984375 L 169.808594 199.554688 L 179.441406 199.554688 L 179.441406 242.988281 C 179.445312 245.65625 177.289062 247.816406 174.625 247.816406 Z M 174.625 247.816406 "/></g><path style=" stroke:none;fill-rule:nonzero;fill:#ffffff;fill-opacity:1;" d="M 166.171875 218.566406 C 164.160156 218.566406 162.535156 220.199219 162.535156 222.214844 L 162.535156 227.394531 L 169.808594 227.394531 L 169.808594 222.214844 C 169.808594 220.203125 168.183594 218.566406 166.171875 218.566406 Z M 166.171875 218.566406 "/><path style=" stroke:none;fill-rule:nonzero;fill:#3fa9f5;fill-opacity:1;" d="M 160.171875 241.8125 C 160.171875 242.082031 160.144531 242.347656 160.09375 242.609375 C 160.039062 242.875 159.960938 243.128906 159.859375 243.378906 C 159.757812 243.625 159.632812 243.863281 159.484375 244.085938 C 159.332031 244.308594 159.164062 244.515625 158.976562 244.707031 C 158.785156 244.894531 158.578125 245.066406 158.355469 245.214844 C 158.132812 245.363281 157.898438 245.488281 157.652344 245.59375 C 157.402344 245.695312 157.148438 245.773438 156.886719 245.824219 C 156.621094 245.878906 156.359375 245.902344 156.089844 245.902344 C 155.820312 245.902344 155.554688 245.878906 155.292969 245.824219 C 155.03125 245.773438 154.777344 245.695312 154.527344 245.59375 C 154.28125 245.488281 154.046875 245.363281 153.824219 245.214844 C 153.601562 245.066406 153.394531 244.894531 153.203125 244.707031 C 153.015625 244.515625 152.84375 244.308594 152.695312 244.085938 C 152.546875 243.863281 152.421875 243.625 152.320312 243.378906 C 152.21875 243.128906 152.140625 242.875 152.085938 242.609375 C 152.035156 242.347656 152.007812 242.082031 152.007812 241.8125 C 152.007812 241.542969 152.035156 241.277344 152.085938 241.011719 C 152.140625 240.75 152.21875 240.496094 152.320312 240.246094 C 152.421875 239.996094 152.546875 239.761719 152.695312 239.539062 C 152.84375 239.316406 153.015625 239.109375 153.203125 238.917969 C 153.394531 238.726562 153.601562 238.558594 153.824219 238.410156 C 154.046875 238.261719 154.28125 238.132812 154.527344 238.03125 C 154.777344 237.929688 155.03125 237.851562 155.292969 237.796875 C 155.554688 237.746094 155.820312 237.71875 156.089844 237.71875 C 156.359375 237.71875 156.621094 237.746094 156.886719 237.796875 C 157.148438 237.851562 157.402344 237.929688 157.652344 238.03125 C 157.898438 238.132812 158.132812 238.261719 158.355469 238.410156 C 158.578125 238.558594 158.785156 238.726562 158.976562 238.917969 C 159.164062 239.109375 159.332031 239.316406 159.484375 239.539062 C 159.632812 239.761719 159.757812 239.996094 159.859375 240.246094 C 159.960938 240.496094 160.039062 240.75 160.09375 241.011719 C 160.144531 241.277344 160.171875 241.542969 160.171875 241.8125 Z M 160.171875 241.8125 "/><g style="fill:#000000;fill-opacity:1;"><g transform="translate(189.954309, 197.523196)"><path style="stroke:none" d="M 9.71875 -32.5625 L 9.71875 -20.078125 L 17.421875 -20.078125 L 17.421875 -32.5625 L 24.203125 -32.5625 L 24.203125 0 L 17.421875 0 L 17.421875 -13.75 L 9.71875 -13.75 L 9.71875 0 L 2.9375 0 L 2.9375 -32.5625 Z M 9.71875 -32.5625 "/></g></g><g style="fill:#000000;fill-opacity:1;"><g transform="translate(217.08786, 197.523196)"><path style="stroke:none" d="M 8.953125 -9.71875 C 8.953125 -8.425781 9.363281 -7.394531 10.1875 -6.625 C 11.019531 -5.851562 12.148438 -5.46875 13.578125 -5.46875 C 14.992188 -5.46875 16.113281 -5.851562 16.9375 -6.625 C 17.769531 -7.394531 18.1875 -8.425781 18.1875 -9.71875 L 18.1875 -22.890625 C 18.1875 -24.179688 17.769531 -25.210938 16.9375 -25.984375 C 16.113281 -26.753906 14.992188 -27.140625 13.578125 -27.140625 C 12.148438 -27.140625 11.019531 -26.753906 10.1875 -25.984375 C 9.363281 -25.210938 8.953125 -24.179688 8.953125 -22.890625 Z M 2.171875 -22.890625 C 2.171875 -24.429688 2.441406 -25.816406 2.984375 -27.046875 C 3.523438 -28.285156 4.289062 -29.347656 5.28125 -30.234375 C 6.28125 -31.128906 7.476562 -31.816406 8.875 -32.296875 C 10.28125 -32.773438 11.847656 -33.015625 13.578125 -33.015625 C 15.296875 -33.015625 16.851562 -32.773438 18.25 -32.296875 C 19.65625 -31.816406 20.851562 -31.128906 21.84375 -30.234375 C 22.84375 -29.347656 23.613281 -28.285156 24.15625 -27.046875 C 24.695312 -25.816406 24.96875 -24.429688 24.96875 -22.890625 L 24.96875 -9.71875 C 24.96875 -8.21875 24.6875 -6.835938 24.125 -5.578125 C 23.570312 -4.328125 22.796875 -3.257812 21.796875 -2.375 C 20.804688 -1.488281 19.609375 -0.796875 18.203125 -0.296875 C 16.804688 0.203125 15.265625 0.453125 13.578125 0.453125 C 11.847656 0.453125 10.28125 0.210938 8.875 -0.265625 C 7.476562 -0.753906 6.28125 -1.441406 5.28125 -2.328125 C 4.289062 -3.210938 3.523438 -4.28125 2.984375 -5.53125 C 2.441406 -6.789062 2.171875 -8.1875 2.171875 -9.71875 Z M 2.171875 -22.890625 "/></g></g><g style="fill:#000000;fill-opacity:1;"><g transform="translate(244.22141, 197.523196)"><path style="stroke:none" d="M 1.8125 0 L 1.8125 -32.5625 L 9.6875 -32.5625 L 12.984375 -22.703125 C 13.097656 -22.367188 13.1875 -22.019531 13.25 -21.65625 C 13.3125 -21.300781 13.375 -20.972656 13.4375 -20.671875 C 13.46875 -20.335938 13.5 -20.003906 13.53125 -19.671875 L 13.890625 -19.671875 C 13.921875 -20.003906 13.960938 -20.335938 14.015625 -20.671875 C 14.078125 -20.972656 14.140625 -21.300781 14.203125 -21.65625 C 14.265625 -22.019531 14.34375 -22.367188 14.4375 -22.703125 L 17.375 -32.5625 L 25.328125 -32.5625 L 25.328125 0 L 19.40625 0 L 19.40625 -19.90625 C 19.40625 -20.75 19.441406 -21.59375 19.515625 -22.4375 C 19.585938 -23.28125 19.671875 -24.050781 19.765625 -24.75 C 19.859375 -25.59375 19.960938 -26.390625 20.078125 -27.140625 L 19.546875 -27.140625 C 19.390625 -26.421875 19.253906 -25.710938 19.140625 -25.015625 C 18.984375 -24.410156 18.84375 -23.785156 18.71875 -23.140625 C 18.601562 -22.492188 18.46875 -21.941406 18.3125 -21.484375 L 16.28125 -14.25 L 10.953125 -14.25 L 8.6875 -21.484375 C 8.53125 -21.941406 8.390625 -22.484375 8.265625 -23.109375 C 8.148438 -23.742188 8.050781 -24.363281 7.96875 -24.96875 C 7.84375 -25.664062 7.71875 -26.390625 7.59375 -27.140625 L 7.015625 -27.140625 C 7.128906 -26.390625 7.25 -25.59375 7.375 -24.75 C 7.46875 -24.050781 7.550781 -23.28125 7.625 -22.4375 C 7.695312 -21.59375 7.734375 -20.75 7.734375 -19.90625 L 7.734375 0 Z M 1.8125 0 "/></g></g><g style="fill:#000000;fill-opacity:1;"><g transform="translate(271.354961, 197.523196)"><path style="stroke:none" d="M 3.625 0 L 3.625 -32.5625 L 24.203125 -32.5625 L 24.203125 -26.6875 L 10.40625 -26.6875 L 10.40625 -19.625 L 22.625 -19.625 L 22.625 -13.75 L 10.40625 -13.75 L 10.40625 -5.875 L 24.203125 -5.875 L 24.203125 0 Z M 3.625 0 "/></g></g><g style="fill:#000000;fill-opacity:1;"><g transform="translate(191.578322, 215.602896)"><path style="stroke:none" d="M 10.09375 0 L 10.09375 -6.9375 C 10.09375 -7.707031 10.113281 -8.445312 10.15625 -9.15625 C 9.914062 -8.269531 9.695312 -7.582031 9.5 -7.09375 L 6.8125 0 L 5.828125 0 L 3.109375 -7.09375 L 2.6875 -8.34375 L 2.4375 -9.15625 L 2.46875 -8.34375 L 2.5 -6.9375 L 2.5 0 L 1.234375 0 L 1.234375 -10.40625 L 3.09375 -10.40625 L 5.859375 -3.1875 C 5.960938 -2.894531 6.054688 -2.582031 6.140625 -2.25 C 6.234375 -1.914062 6.296875 -1.675781 6.328125 -1.53125 C 6.367188 -1.726562 6.453125 -2.023438 6.578125 -2.421875 C 6.703125 -2.828125 6.785156 -3.082031 6.828125 -3.1875 L 9.546875 -10.40625 L 11.359375 -10.40625 L 11.359375 0 Z M 10.09375 0 "/></g></g><g style="fill:#000000;fill-opacity:1;"><g transform="translate(205.970353, 215.602896)"><path style="stroke:none" d="M 8.625 0 L 7.421875 -3.046875 L 2.6875 -3.046875 L 1.484375 0 L 0.03125 0 L 4.28125 -10.40625 L 5.875 -10.40625 L 10.0625 0 Z M 5.0625 -9.34375 L 5 -9.140625 C 4.875 -8.722656 4.691406 -8.195312 4.453125 -7.5625 L 3.109375 -4.140625 L 7.015625 -4.140625 L 5.671875 -7.578125 C 5.535156 -7.921875 5.398438 -8.304688 5.265625 -8.734375 Z M 5.0625 -9.34375 "/></g></g><g style="fill:#000000;fill-opacity:1;"><g transform="translate(217.852696, 215.602896)"><path style="stroke:none" d="M 8.171875 0 L 4.015625 -5.015625 L 2.65625 -3.984375 L 2.65625 0 L 1.234375 0 L 1.234375 -10.40625 L 2.65625 -10.40625 L 2.65625 -5.1875 L 7.671875 -10.40625 L 9.328125 -10.40625 L 4.890625 -5.890625 L 9.921875 0 Z M 8.171875 0 "/></g></g><g style="fill:#000000;fill-opacity:1;"><g transform="translate(229.735038, 215.602896)"><path style="stroke:none" d="M 1.234375 0 L 1.234375 -10.40625 L 9.140625 -10.40625 L 9.140625 -9.25 L 2.65625 -9.25 L 2.65625 -5.921875 L 8.6875 -5.921875 L 8.6875 -4.78125 L 2.65625 -4.78125 L 2.65625 -1.15625 L 9.4375 -1.15625 L 9.4375 0 Z M 1.234375 0 "/></g></g><g style="fill:#000000;fill-opacity:1;"><g transform="translate(241.617381, 215.602896)"><path style="stroke:none" d="M 11.046875 -5.25 C 11.046875 -4.164062 10.835938 -3.210938 10.421875 -2.390625 C 10.003906 -1.578125 9.40625 -0.953125 8.625 -0.515625 C 7.84375 -0.078125 6.925781 0.140625 5.875 0.140625 C 4.800781 0.140625 3.875 -0.0703125 3.09375 -0.5 C 2.320312 -0.9375 1.734375 -1.5625 1.328125 -2.375 C 0.921875 -3.195312 0.71875 -4.15625 0.71875 -5.25 C 0.71875 -6.914062 1.171875 -8.21875 2.078125 -9.15625 C 2.992188 -10.09375 4.265625 -10.5625 5.890625 -10.5625 C 6.941406 -10.5625 7.859375 -10.347656 8.640625 -9.921875 C 9.421875 -9.503906 10.015625 -8.894531 10.421875 -8.09375 C 10.835938 -7.289062 11.046875 -6.34375 11.046875 -5.25 Z M 9.59375 -5.25 C 9.59375 -6.539062 9.269531 -7.554688 8.625 -8.296875 C 7.976562 -9.035156 7.066406 -9.40625 5.890625 -9.40625 C 4.691406 -9.40625 3.769531 -9.039062 3.125 -8.3125 C 2.476562 -7.582031 2.15625 -6.5625 2.15625 -5.25 C 2.15625 -3.945312 2.484375 -2.910156 3.140625 -2.140625 C 3.796875 -1.378906 4.707031 -1 5.875 -1 C 7.070312 -1 7.988281 -1.367188 8.625 -2.109375 C 9.269531 -2.847656 9.59375 -3.894531 9.59375 -5.25 Z M 9.59375 -5.25 "/></g></g><g style="fill:#000000;fill-opacity:1;"><g transform="translate(255.17531, 215.602896)"><path style="stroke:none" d="M 5.78125 0 L 4.3125 0 L 0.0625 -10.40625 L 1.546875 -10.40625 L 4.4375 -3.078125 L 5.046875 -1.234375 L 5.671875 -3.078125 L 8.53125 -10.40625 L 10.015625 -10.40625 Z M 5.78125 0 "/></g></g><g style="fill:#000000;fill-opacity:1;"><g transform="translate(267.057653, 215.602896)"><path style="stroke:none" d="M 1.234375 0 L 1.234375 -10.40625 L 9.140625 -10.40625 L 9.140625 -9.25 L 2.65625 -9.25 L 2.65625 -5.921875 L 8.6875 -5.921875 L 8.6875 -4.78125 L 2.65625 -4.78125 L 2.65625 -1.15625 L 9.4375 -1.15625 L 9.4375 0 Z M 1.234375 0 "/></g></g><g style="fill:#000000;fill-opacity:1;"><g transform="translate(278.939995, 215.602896)"><path style="stroke:none" d="M 8.59375 0 L 5.890625 -4.328125 L 2.65625 -4.328125 L 2.65625 0 L 1.234375 0 L 1.234375 -10.40625 L 6.140625 -10.40625 C 7.304688 -10.40625 8.207031 -10.140625 8.84375 -9.609375 C 9.488281 -9.085938 9.8125 -8.359375 9.8125 -7.421875 C 9.8125 -6.648438 9.582031 -6 9.125 -5.46875 C 8.675781 -4.945312 8.054688 -4.617188 7.265625 -4.484375 L 10.21875 0 Z M 8.390625 -7.421875 C 8.390625 -8.023438 8.179688 -8.484375 7.765625 -8.796875 C 7.359375 -9.117188 6.769531 -9.28125 6 -9.28125 L 2.65625 -9.28125 L 2.65625 -5.4375 L 6.0625 -5.4375 C 6.800781 -5.4375 7.375 -5.609375 7.78125 -5.953125 C 8.1875 -6.304688 8.390625 -6.796875 8.390625 -7.421875 Z M 8.390625 -7.421875 "/></g></g></g></svg>